<?xml version="1.0" standalone="no"?>
<!DOCTYPE svg PUBLIC "-//W3C//DTD SVG 20010904//EN"
 "http://www.w3.org/TR/2001/REC-SVG-20010904/DTD/svg10.dtd">
<svg version="1.0" xmlns="http://www.w3.org/2000/svg"
 width="1945.000000pt" height="1945.000000pt" viewBox="0 0 1945.000000 1945.000000"
 preserveAspectRatio="xMidYMid meet">
<metadata>
Created by potrace 1.14, written by Peter Selinger 2001-2017
</metadata>
<g transform="translate(0.000000,1945.000000) scale(0.100000,-0.100000)"
fill="#000000" stroke="none">
<path d="M9409 19447 c-2 -3 -76 -8 -164 -11 -88 -4 -171 -9 -185 -10 -14 -2
-72 -7 -130 -10 -58 -4 -118 -9 -135 -11 -16 -2 -57 -7 -90 -10 -58 -5 -124
-13 -175 -20 -14 -2 -52 -7 -85 -10 -33 -4 -67 -8 -75 -10 -8 -2 -37 -7 -65
-10 -41 -5 -160 -25 -370 -61 -230 -40 -680 -147 -940 -224 -38 -12 -77 -23
-85 -25 -51 -11 -551 -181 -605 -206 -11 -4 -72 -28 -135 -53 -491 -188 -1163
-526 -1595 -801 -508 -325 -932 -645 -1351 -1020 -199 -178 -547 -526 -714
-714 -36 -40 -76 -85 -89 -100 -57 -60 -323 -385 -412 -501 -180 -234 -416
-575 -541 -780 -24 -39 -56 -92 -72 -118 -128 -209 -267 -465 -391 -717 -93
-190 -205 -431 -205 -442 0 -3 -6 -19 -14 -36 -48 -106 -70 -160 -131 -317
-140 -364 -318 -936 -390 -1260 -2 -8 -11 -49 -20 -90 -37 -165 -46 -206 -51
-240 -3 -19 -9 -51 -14 -70 -5 -19 -11 -53 -15 -74 -3 -21 -14 -89 -25 -150
-11 -61 -22 -133 -26 -161 -3 -27 -8 -57 -9 -66 -2 -9 -6 -40 -10 -69 -4 -29
-9 -62 -11 -74 -2 -12 -6 -46 -9 -77 -3 -31 -7 -69 -9 -85 -4 -26 -8 -71 -21
-204 -35 -358 -48 -890 -31 -1275 9 -219 14 -307 20 -368 3 -29 8 -86 11 -128
3 -42 7 -85 9 -96 3 -11 7 -56 11 -99 3 -43 8 -86 10 -94 2 -8 7 -42 10 -75 4
-33 8 -67 11 -75 2 -8 6 -35 8 -60 6 -53 55 -354 61 -372 2 -7 7 -30 10 -51 5
-35 44 -228 79 -388 54 -248 194 -729 297 -1021 221 -626 488 -1196 827 -1763
120 -201 146 -242 262 -414 39 -57 70 -105 70 -108 0 -2 13 -21 29 -41 16 -20
77 -104 137 -187 60 -82 114 -157 121 -165 6 -8 60 -76 119 -150 149 -188 303
-366 489 -569 94 -101 419 -426 535 -532 85 -78 308 -272 440 -382 113 -95
438 -341 550 -418 36 -24 67 -47 70 -50 22 -25 505 -330 710 -447 287 -166
744 -390 1050 -517 36 -15 79 -33 95 -40 288 -128 1111 -391 1408 -450 9 -2
44 -11 78 -19 33 -9 75 -18 92 -22 18 -3 52 -10 77 -15 25 -6 56 -13 70 -15
14 -2 36 -7 50 -10 33 -8 51 -11 91 -18 19 -3 45 -8 59 -11 14 -2 36 -7 50
-10 14 -2 41 -7 60 -10 19 -3 60 -10 90 -15 30 -5 79 -12 109 -15 30 -3 57 -8
60 -9 3 -2 35 -7 71 -11 36 -4 72 -8 80 -10 8 -2 44 -6 80 -10 36 -4 72 -8 80
-10 8 -2 53 -6 100 -10 47 -4 103 -9 125 -11 81 -8 293 -22 455 -30 240 -12
774 -6 990 11 30 2 93 7 140 10 126 9 191 15 230 20 19 2 60 7 90 10 57 6 69
8 205 24 124 16 166 22 225 31 30 5 71 12 90 15 192 31 522 98 720 146 91 22
172 42 180 44 75 16 395 113 612 185 645 216 1281 505 1833 835 226 136 310
189 478 302 169 114 189 128 397 282 178 131 523 411 636 516 6 5 53 48 105
95 101 91 522 510 604 600 28 31 73 81 100 111 199 219 467 553 664 827 80
112 324 475 347 517 6 11 49 83 96 160 46 77 101 169 120 205 20 36 53 94 73
130 61 110 290 577 355 725 137 312 287 713 379 1020 29 94 59 192 67 219 18
57 120 457 128 501 3 17 8 39 10 50 44 200 56 258 62 300 3 28 8 53 10 56 3 5
58 349 69 427 6 48 13 103 20 165 3 23 8 58 10 77 3 19 7 64 10 100 3 36 7 81
10 100 2 19 7 76 10 125 3 50 8 106 10 125 23 213 23 1063 0 1290 -2 19 -6 76
-10 125 -3 50 -7 104 -9 120 -2 17 -7 64 -11 105 -3 41 -8 86 -10 100 -3 24
-11 84 -20 165 -3 22 -7 51 -9 65 -3 14 -8 48 -11 75 -3 28 -7 61 -10 75 -3
14 -7 39 -9 55 -3 17 -10 62 -16 100 -16 103 -57 311 -92 465 -16 74 -31 143
-33 154 -56 272 -221 805 -378 1226 -144 384 -448 1031 -608 1293 -16 26 -29
49 -29 52 0 28 -447 724 -552 860 -4 6 -67 89 -140 185 -126 167 -271 349
-347 436 -20 22 -65 74 -101 114 -303 346 -769 804 -1016 1001 -22 17 -41 34
-44 38 -11 16 -356 286 -495 388 -791 579 -1661 1034 -2590 1356 -360 124
-627 198 -1125 313 -14 3 -36 8 -50 10 -14 3 -81 16 -150 29 -69 13 -141 26
-160 30 -19 3 -57 10 -85 15 -27 5 -77 12 -110 16 -33 3 -62 8 -65 9 -3 2 -33
7 -65 10 -33 4 -67 9 -75 10 -9 2 -43 6 -75 10 -33 4 -71 8 -85 10 -14 2 -56
7 -95 10 -38 3 -86 8 -105 11 -19 2 -69 6 -110 9 -41 2 -109 7 -150 11 -41 3
-99 8 -130 10 -82 6 -835 15 -841 11z m42 -519 c1 -7 2 -3155 3 -6996 l1
-6982 -75 5 c-41 3 -106 7 -145 10 -38 2 -97 7 -130 10 -33 3 -85 7 -115 10
-52 5 -85 9 -170 20 -19 3 -53 7 -75 10 -205 23 -603 106 -880 181 -124 34
-448 136 -490 154 -11 5 -72 28 -135 51 -104 38 -221 86 -400 165 -105 46
-388 188 -494 248 -54 31 -100 56 -101 56 -8 0 -314 192 -420 263 -199 133
-459 330 -625 473 -169 146 -249 221 -430 403 -360 361 -633 695 -903 1106
-82 125 -217 343 -217 350 0 2 -23 43 -51 91 -119 207 -295 582 -402 859 -150
386 -294 895 -353 1245 -4 25 -8 47 -9 50 -1 5 -24 140 -31 180 -3 23 -19 140
-29 220 -3 19 -7 67 -10 105 -3 39 -8 81 -10 95 -2 14 -7 72 -10 130 -4 58 -9
137 -11 175 -5 81 -5 630 1 690 2 22 6 87 10 144 11 171 17 230 35 366 5 39
12 90 15 115 27 210 96 553 159 795 256 982 738 1916 1387 2690 64 77 127 151
140 165 12 14 45 50 73 80 148 163 384 396 541 534 129 113 129 113 265 223
540 434 1152 788 1805 1046 125 49 333 125 360 131 6 1 62 19 125 38 98 31
185 56 250 73 8 2 58 15 110 29 52 14 106 27 120 30 14 3 99 20 190 40 91 19
190 37 220 41 30 4 57 8 60 10 3 2 28 6 55 9 28 4 61 8 75 11 66 11 127 19
258 31 35 3 72 7 82 9 11 2 77 7 147 11 71 3 129 7 130 8 1 0 24 2 52 4 36 2
51 -1 52 -10z m819 -4 c47 -3 96 -7 110 -9 14 -2 59 -7 100 -10 41 -4 84 -9
95 -11 11 -2 45 -6 75 -9 30 -3 78 -10 105 -15 28 -6 66 -12 85 -14 90 -11
306 -53 475 -93 188 -43 159 -36 305 -78 69 -19 132 -37 140 -39 61 -15 335
-110 474 -163 365 -140 699 -303 1084 -528 274 -160 649 -429 927 -665 203
-173 305 -271 621 -593 19 -20 201 -229 264 -303 225 -267 524 -702 700 -1019
18 -33 42 -76 53 -95 47 -83 199 -396 251 -515 31 -71 61 -139 66 -150 55
-122 203 -548 255 -735 32 -113 64 -235 71 -270 3 -14 11 -50 19 -80 26 -105
54 -250 86 -440 20 -125 23 -141 34 -235 4 -27 8 -61 10 -75 48 -338 63 -985
30 -1355 -1 -16 -5 -70 -9 -120 -4 -49 -10 -103 -12 -120 -3 -16 -7 -50 -10
-75 -2 -25 -8 -76 -14 -115 -5 -38 -12 -88 -15 -110 -3 -23 -7 -50 -9 -62 -3
-11 -7 -38 -10 -59 -49 -308 -185 -835 -292 -1129 -20 -55 -40 -111 -44 -125
-27 -83 -143 -362 -215 -515 -132 -282 -213 -429 -440 -803 -83 -137 -313
-456 -459 -637 -270 -334 -744 -813 -1006 -1015 -25 -19 -47 -37 -50 -40 -31
-32 -291 -227 -430 -323 -177 -121 -490 -317 -505 -317 -3 0 -22 -11 -43 -23
-94 -60 -360 -194 -557 -282 -16 -7 -57 -26 -90 -40 -280 -126 -862 -320
-1105 -370 -8 -2 -45 -10 -81 -19 -37 -8 -78 -17 -90 -20 -13 -2 -58 -11 -99
-20 -78 -16 -190 -36 -225 -41 -11 -2 -33 -6 -50 -9 -37 -7 -87 -14 -140 -21
-115 -14 -297 -35 -345 -39 -127 -11 -211 -16 -302 -21 -95 -4 -98 -3 -99 18
-1 30 -1 13927 0 13950 1 19 42 19 311 1z m4958 -1799 c432 -325 799 -651
1162 -1032 134 -141 191 -202 265 -288 38 -44 79 -91 91 -105 79 -91 227 -276
314 -390 14 -19 34 -45 46 -59 46 -57 247 -345 336 -481 488 -746 887 -1608
1124 -2430 24 -85 48 -168 54 -185 20 -65 97 -385 124 -515 9 -42 56 -293 62
-325 2 -16 9 -55 14 -85 13 -78 17 -104 45 -300 2 -14 7 -54 10 -90 4 -36 9
-72 10 -80 1 -8 6 -46 9 -85 4 -38 9 -86 11 -105 38 -323 48 -1062 20 -1430
-7 -86 -26 -312 -29 -345 -2 -16 -6 -61 -10 -100 -4 -38 -9 -81 -11 -95 -2
-14 -7 -49 -10 -79 -4 -30 -8 -62 -10 -71 -2 -9 -6 -41 -10 -70 -4 -29 -9 -62
-11 -74 -2 -11 -6 -38 -9 -61 -9 -66 -46 -267 -55 -305 -5 -19 -11 -48 -14
-65 -4 -26 -9 -51 -31 -155 -28 -137 -163 -637 -208 -775 -2 -5 -12 -37 -22
-70 -42 -143 -231 -642 -305 -810 -156 -351 -285 -608 -453 -900 -44 -77 -88
-153 -97 -170 -153 -267 -533 -806 -764 -1085 -66 -79 -238 -281 -261 -306 -5
-6 -50 -55 -100 -110 -102 -112 -402 -413 -516 -519 -127 -117 -150 -137 -272
-243 -567 -489 -1217 -922 -1882 -1253 -248 -124 -335 -164 -490 -228 -55 -23
-109 -46 -120 -51 -74 -35 -562 -216 -605 -225 -8 -2 -49 -15 -90 -28 -81 -28
-290 -90 -380 -114 -118 -31 -336 -85 -359 -89 -12 -3 -53 -12 -90 -20 -36 -9
-77 -18 -91 -20 -14 -2 -36 -7 -50 -10 -14 -3 -36 -8 -50 -10 -14 -3 -47 -9
-75 -14 -80 -16 -97 -19 -135 -25 -20 -3 -47 -7 -60 -10 -78 -15 -428 -63
-520 -71 -30 -2 -68 -6 -85 -9 -16 -2 -70 -7 -120 -10 -49 -4 -106 -9 -125
-11 -19 -2 -93 -6 -165 -9 -71 -3 -160 -8 -197 -10 -41 -2 -70 1 -74 7 -7 12
-10 3916 -3 3922 2 2 71 7 152 11 81 3 155 8 165 9 9 2 61 7 114 11 54 3 112
8 130 10 18 3 56 7 83 10 85 10 136 17 220 30 22 3 55 8 73 10 74 11 149 24
172 30 8 2 33 7 55 10 23 3 52 8 65 11 14 3 36 7 50 10 14 3 66 14 115 26 50
11 117 26 150 33 192 42 616 173 872 269 279 104 685 291 958 441 991 543
1886 1348 2547 2292 86 122 255 382 298 458 228 398 361 666 497 999 62 153
160 418 178 486 3 8 23 74 45 145 39 127 124 442 134 498 3 15 7 35 10 45 3 9
7 28 10 42 3 14 16 81 30 150 51 253 84 481 112 769 35 360 38 891 9 1281 -6
76 -15 178 -20 220 -2 19 -7 60 -10 90 -4 30 -8 66 -10 80 -2 14 -6 48 -10 75
-6 50 -31 212 -39 251 -2 12 -7 38 -10 58 -15 94 -88 426 -112 512 -8 28 -16
60 -18 70 -11 51 -101 347 -150 490 -170 500 -358 905 -671 1442 -138 238
-468 701 -650 913 -16 19 -52 61 -80 94 -27 32 -55 63 -60 69 -6 6 -48 53 -95
105 -47 52 -131 141 -187 198 -122 124 -102 114 145 -72z m-10814 123 c-10
-12 -43 -47 -73 -77 -29 -31 -92 -98 -140 -150 -47 -52 -93 -102 -101 -111
-82 -87 -266 -314 -402 -495 -381 -508 -734 -1143 -954 -1715 -25 -63 -49
-124 -54 -135 -35 -78 -166 -494 -220 -700 -36 -137 -33 -121 -49 -200 -7 -33
-16 -73 -21 -90 -5 -16 -11 -43 -14 -60 -2 -16 -14 -75 -25 -130 -20 -100 -54
-307 -66 -400 -4 -27 -8 -60 -10 -73 -2 -13 -7 -53 -11 -90 -3 -37 -8 -75 -10
-85 -3 -17 -10 -95 -20 -217 -23 -298 -23 -947 0 -1140 2 -14 7 -67 10 -117 4
-51 9 -103 11 -115 2 -13 6 -50 10 -83 12 -113 31 -245 70 -480 17 -99 82
-392 120 -540 259 -999 733 -1946 1385 -2765 295 -371 704 -793 1030 -1061 36
-30 67 -56 70 -59 3 -3 39 -33 80 -65 41 -33 77 -62 80 -66 3 -3 66 -50 140
-106 638 -476 1359 -852 2108 -1099 141 -46 378 -118 430 -129 9 -2 81 -20
159 -39 78 -19 152 -37 165 -40 12 -2 82 -16 153 -30 72 -14 158 -30 192 -36
35 -5 75 -12 90 -15 16 -3 46 -7 68 -10 22 -3 58 -8 80 -11 78 -11 91 -13 145
-19 30 -3 71 -8 90 -10 19 -2 69 -7 110 -10 41 -3 95 -8 120 -10 25 -2 99 -7
165 -10 66 -3 122 -8 125 -11 3 -3 5 -411 5 -906 l0 -900 -165 6 c-91 4 -190
9 -220 11 -107 7 -225 17 -250 20 -14 1 -60 6 -103 10 -43 3 -88 8 -100 10
-12 2 -49 6 -81 10 -60 6 -106 12 -161 20 -16 3 -48 7 -70 10 -22 3 -56 8 -75
12 -19 3 -44 7 -55 8 -29 3 -98 15 -115 20 -8 2 -31 6 -50 9 -19 3 -44 7 -55
9 -11 3 -36 7 -55 11 -19 3 -46 8 -60 11 -14 3 -54 12 -90 19 -260 53 -674
164 -950 256 -808 270 -1529 641 -2165 1114 -122 91 -360 283 -411 331 -6 5
-49 44 -95 85 -432 389 -840 885 -1131 1375 -137 232 -226 408 -356 705 -36
82 -139 364 -167 455 -15 50 -35 117 -45 150 -11 33 -27 88 -37 121 l-18 62
-217 -64 c-119 -35 -227 -68 -241 -73 l-24 -10 39 -128 c21 -70 41 -136 43
-146 9 -42 109 -326 156 -445 200 -506 467 -981 801 -1427 321 -430 727 -848
1163 -1201 645 -521 1428 -966 2240 -1271 118 -44 396 -141 425 -148 8 -2 76
-22 150 -45 129 -39 496 -137 550 -147 14 -2 41 -8 60 -13 19 -5 46 -11 60
-14 28 -5 112 -23 150 -31 33 -7 53 -11 125 -24 33 -6 71 -13 85 -16 76 -15
183 -32 280 -45 41 -6 84 -12 95 -14 11 -2 45 -7 76 -10 31 -4 65 -8 76 -10
10 -2 50 -7 88 -10 39 -4 86 -9 105 -11 47 -6 154 -16 210 -20 247 -18 347
-24 478 -26 65 -1 102 -6 103 -13 1 -6 2 -371 3 -812 l1 -801 -45 3 c-25 1
-108 5 -185 9 -77 3 -156 8 -175 10 -19 1 -73 6 -120 10 -47 3 -98 8 -115 10
-16 2 -57 7 -89 10 -33 3 -73 8 -90 10 -28 4 -52 7 -166 21 -19 2 -46 6 -60 9
-14 2 -47 7 -75 10 -27 4 -57 8 -65 10 -8 2 -33 7 -55 10 -23 3 -52 8 -65 11
-36 7 -119 22 -160 29 -165 27 -674 154 -905 225 -55 17 -107 32 -116 34 -72
18 -484 166 -670 241 -315 127 -771 343 -1007 477 -59 34 -127 72 -152 86
-272 151 -789 496 -1045 697 -167 131 -426 344 -445 365 -3 4 -45 42 -95 86
-108 95 -121 107 -305 289 -159 156 -265 266 -380 394 -41 46 -79 89 -85 95
-344 381 -809 1033 -1067 1496 -14 25 -35 63 -48 85 -256 449 -519 1047 -685
1555 -32 96 -61 184 -66 195 -7 20 -67 223 -74 254 -2 9 -27 104 -54 211 -45
174 -74 296 -87 370 -3 14 -13 68 -24 120 -26 132 -45 243 -69 400 -33 223
-35 241 -45 350 -4 35 -8 76 -11 90 -2 14 -6 61 -10 105 -3 44 -8 98 -10 120
-37 373 -32 1119 10 1535 2 25 7 74 10 110 7 81 14 139 40 335 26 196 70 445
116 658 17 78 32 151 35 162 4 18 29 118 38 155 3 8 9 38 16 65 23 103 130
466 175 595 15 41 28 82 30 91 6 30 149 406 202 534 110 263 305 668 445 925
122 221 359 600 535 853 105 151 363 486 476 617 228 266 257 298 467 514 243
250 532 513 810 736 106 86 482 370 489 370 2 0 -4 -10 -15 -22z"/>
</g>
</svg>
